<?xml version="1.0" encoding="UTF-8"?>
<svg xmlns="http://www.w3.org/2000/svg" version="1.1" viewBox="0 0 595.3 595.3">
  <defs>
    <style>
      .cls-1 {
        fill: #ca603b;
      }

      .cls-2 {
        fill: #c45134;
      }

      .cls-3 {
        fill: #2e9aca;
      }

      .cls-4 {
        fill: #fefefe;
      }

      .cls-5 {
        fill: #1568a9;
      }

      .cls-6 {
        fill: #e9e8e8;
      }
    </style>
  </defs>
  <!-- Generator: Adobe Illustrator 28.7.5, SVG Export Plug-In . SVG Version: 1.2.0 Build 176)  -->
  <g>
    <g id="Layer_1">
      <g>
        <path class="cls-2" d="M236.3,441.9c-9.6,2.5-19.1,5-28,7.3-49.7-13.8-98.9-27.5-147.5-41-11.1-125.1-22-249-33.1-373.8h362.2c-3.4,43.2-7,86.3-10.5,129.5,0,3.2-.1,6.3-.2,9.5-.1,2.4-.2,4.8-.3,7.2-1,10.3-2,20.6-3,30.9-.2,1.6-.4,3.2-.5,4.8-.1,7.7-.2,15.4-.4,23.1,0,0-.3.6-.3.6-1.8,11.9-3.5,23.8-5.3,35.6.1,1.6.3,3.1.4,4.7-.2,3.7-.3,7.4-.5,11.1-2.5,24.7-4.9,49.5-7.4,74.2.1,2.3.3,4.5.4,6.8-.9,4.8-2.6,9.6-2.6,14.4,0,13.9-3.7,24.8-19.3,27.5-15,4-29.9,7.9-44.9,11.9-19.7,5.3-39.5,10.5-59.2,15.8ZM211.6,248.9c1.9,0,3.7,0,5.6,0h47.2c-.4,6-.7,10.6-1,15.1-.7-3.9-1.4-7.8-2.2-11.9h-51.5c0,19.2-6.1,51.3,3.6,67.8-1.2.8-2.4,1.5-3.6,2.3-17.3-4.8-34.7-9.6-51.3-14.2-1.1-13.3-2.1-24.8-3-35.6h-45.7c2,24.3,4,47.9,5.8,69.3,31.4,10.7,62.7,21.2,94.4,31.1v45.2c41.2-11.4,80.2-22.1,119.3-32.8,9.5-106.4,19-212.5,28.4-318.6h-146.7v42.1c35.6,0,76.6-5.4,111.4,2.3-37.5,0-74.9,0-112.4,0h-114.8c4.2,46.6,8.3,92.1,12.4,137.8,34,0,67.4,0,100.7,0,1.2,0,2.5,0,3.7,0Z"/>
        <path class="cls-5" d="M375.3,216.4c.2-1.6.4-3.2.5-4.8,1-10.3,2-20.6,3-31,.1-2.4.2-4.8.3-7.2,1.6-2.2,3.1-4.5,4.8-6.9,53.6,0,112.1,6.7,164.9-1.7,2,0,4.1,0,6.1,0,4,1,8,2,13,3.2v11.6c-9.7,115.1-19.4,230-32,344.9-24.6,7.2-49.1,14.6-74.1,20.6-22.9,5.5-48.4,18.5-72,18-20.8-.5-41.9-10-61.9-14.9-28-6.9-55.6-15.6-83.4-23.4-1.9-27.4-1.2-56.3-8.3-82.9,19.8-5.3,39.5-10.5,59.3-15.8,1.1,12.7,2.3,25.3,3.3,37.4,31.3,9.4,62,18.6,92.7,27.8v44.4c41.3-11.3,80.5-22,119.2-32.6,9.3-104.2,18.5-207.3,27.7-311h-147.2v43.4h-14.3c-.6-6.9-1.2-13.1-1.7-19.2Z"/>
        <path class="cls-3" d="M548.9,164.9c-52.8,8.5-111.3,1.7-164.9,1.7-1.7,2.4-3.2,4.7-4.8,6.9,0-3.2.1-6.4.2-9.5,53.1.1,106.2.2,159.3.3,3.4,0,6.8.4,10.2.6Z"/>
        <path class="cls-3" d="M568,179.7v-11.6c-5-1.2-9-2.2-13-3.2,4.5-.2,9-.5,15.4-.8-.9,6-1.6,10.8-2.4,15.7Z"/>
        <path class="cls-1" d="M322.1,111c-34.8-7.7-75.8-2.3-111.4-2.3v-42.1h146.7c-9.5,106.1-18.9,212.1-28.4,318.6-39.1,10.8-78,21.5-119.3,32.8v-45.2c1.4-1.7,2.9-3.4,4.3-5.2,29.8-8.2,59.7-16.5,89.5-24.7,1.4-16.2,2.7-32.4,4.1-48.6.4-8.7.5-17.4,1.3-26,1.8-21.3,3.9-42.5,5.9-63.8-34.8-1.6-69.3-2.7-104.1-2.7v-42.5c34.5,0,74,5.1,107.7-2.3,1.2-15.4,2.5-30.7,3.7-46.1Z"/>
        <path class="cls-3" d="M375.3,216.4c.5,6.1,1.1,12.2,1.7,19.2h14.3v-43.4h147.2c-9.2,103.7-18.4,206.8-27.7,311-38.6,10.6-77.9,21.3-119.2,32.6,0-15,0-29.7,0-44.4,3.1-2,6.2-3.9,9.3-5.9,27.2-6.8,54.3-13.5,81.5-20.3,3.4-31.9,6.6-62.2,9.8-92.6.4,4.5.8,9,1.3,13.5.7,0,1.3-.1,2-.2-.9-7.5-1.9-14.9-2.8-22.4.7-12.2,1.4-24.3,2.2-37.7h-101.8c14.4-6.4,28.9-12.4,43.4-18.5,20.1-8.6,40.3-17.3,60.4-25.9.6,0,1.2-.3,1.6-.8.4-.4.8-.8,1.2-1.2,1.4-13.3,2.9-26.5,4.3-40h-129.1c.1-7.7.2-15.4.4-23.1Z"/>
        <path class="cls-6" d="M207.9,248.9h-100.7c-4.1-45.7-8.2-91.2-12.4-137.8h114.8c-36.6,1.1-73.2,1.4-109.8,1.4,0,.7,0,1.3,0,2h109v40.6c-20.9,0-42.2-1.5-62.8,2.1v47.5h63.7c-.6,14.7-1.2,29.5-1.9,44.2Z"/>
        <path class="cls-6" d="M209.7,322.3v44.5c.8.2,2.6.6,4.3,1-1.4,1.7-2.9,3.4-4.3,5.2-31.6-9.9-63-20.4-94.4-31.1-1.8-21.4-3.7-45-5.8-69.3h45.7c.9,10.8,1.9,22.3,3,35.6,16.7,4.6,34,9.4,51.3,14.2Z"/>
        <path class="cls-6" d="M387.9,443.4c1.7,14.4,3.3,28.8,5,43.5.9-.2,4.5-.8,8-1.4-3.1,2-6.2,3.9-9.3,5.9-30.7-9.2-61.4-18.4-92.7-27.8-1.1-12.1-2.2-24.8-3.3-37.4,15-4,29.9-7.9,44.9-11.9.3,5.5.5,11,.7,15.4,16.3,4.8,31.5,9.3,46.7,13.7Z"/>
        <path class="cls-1" d="M263.4,264c-1.5,14.9-3.1,29.8-4.6,44.8-16,3.9-30.8,7.5-45.5,11.1-9.7-16.6-3.6-48.6-3.6-67.8h51.5c.7,4.1,1.5,8,2.2,11.9Z"/>
        <path class="cls-5" d="M387.9,443.4c-15.2-4.5-30.4-8.9-46.7-13.7-.2-4.4-.4-9.9-.7-15.4,15.6-2.7,19.4-13.6,19.3-27.5,0-4.8,1.7-9.6,2.6-14.4,9.8.2,19.6.4,29.3.7,0,23.2.2,46.4.3,69.6-1.4.3-2.8.6-4.1.8Z"/>
        <path class="cls-6" d="M389.8,285.1c1.1,26.9,1.8,53.7,1.8,80.6-10.6,0-20.1,0-29.7,0,2.5-24.7,4.9-49.5,7.4-74.2,6.8-2.1,13.6-4.2,20.5-6.4Z"/>
        <path class="cls-6" d="M374.7,240c5,.9,10.1,1.9,16,3v32.7c-7.3,0-14.3,0-21.3,0,1.8-11.9,3.5-23.8,5.3-35.6Z"/>
        <path class="cls-5" d="M389.8,285.1c-6.8,2.1-13.6,4.2-20.5,6.4.2-3.7.3-7.4.5-11.1,7.1,0,14.2,0,22.1,0-.8,1.8-1.5,3.3-2.1,4.7Z"/>
        <path class="cls-3" d="M378.9,180.7c-1,10.3-2,20.6-3,31,1-10.3,2-20.6,3-31Z"/>
        <path class="cls-6" d="M211.6,248.9c1.9,0,3.7,0,5.6,0-1.9,0-3.7,0-5.6,0Z"/>
        <path class="cls-2" d="M146.1,157.1c57.4,0,114.9,0,172.3,0-33.7,7.4-73.2,2.3-107.7,2.3v42.5c34.8,0,69.3,1,104.1,2.7-35,0-69.9,0-104.9.1h-63.7v-47.5Z"/>
        <path class="cls-2" d="M303.5,343c1.4-16.2,2.7-32.4,4.1-48.6-1.4,16.2-2.7,32.4-4.1,48.6Z"/>
        <path class="cls-6" d="M436.5,307.3c-1.9-2.5-3.8-5-7.2-9.4-3.2,1-8.3,2.5-13.3,4h0c-.6-1.2-1.3-2.5-1.9-3.8h0c-.6-4.7-1.2-9.4-2.3-17.8h75.7c-.2-.8-.4-1.7-.6-2.5,3.3,1.2,6.6,2.5,10,3.7-20.1,8.6-40.3,17.3-60.4,25.9Z"/>
        <path class="cls-5" d="M492.2,372.5c.2-3,.3-6,.5-9.1.9,7.5,1.9,14.9,2.8,22.4-.7,0-1.3.1-2,.2-.4-4.5-.8-9-1.3-13.5Z"/>
        <path class="cls-6" d="M498.5,280.6c.2-.6.6-1,1.2-1.2-.4.4-.8.8-1.2,1.2Z"/>
        <path class="cls-3" d="M392,442.6c0-23.2-.2-46.4-.3-69.6,17.7,0,35.3,0,54.4,0-1.1,13.9,2.4,40.8-4.3,52.8-5.3,9.4-25.5,11-35.1,13.6-2.5,1.1-5,2.2-7.5,3.2-2.4,0-4.8,0-7.2-.1Z"/>
        <path class="cls-6" d="M416,301.8c-.8,2.2-1.6,4.3-2.7,7.4-2-2.1-3.2-3.4-4.7-5.1,2-2.2,3.8-4.1,5.6-6.1,0,0,0,0,0,0,.6,1.3,1.3,2.5,1.9,3.8,0,0,0,0,0,0Z"/>
        <path class="cls-6" d="M399.2,442.7c2.5-1.1,5-2.2,7.5-3.2-2.5,1.1-5,2.2-7.5,3.2Z"/>
        <path class="cls-6" d="M497.2,276v-2.7c.3,0,.5,0,.8,0v2.7c-.3,0-.5,0-.8,0Z"/>
      </g>
      <polygon class="cls-4" points="209.3 205.9 315.1 205.9 303.8 344.9 209.3 373.3 209.3 324 213.3 322.1 259.1 310.1 262.2 250.8 207.1 250.8 209.3 205.9"/>
      <polygon class="cls-4" points="210.2 158.8 319 158.8 323.7 111.8 210.2 111.8 210.2 158.8"/>
      <path class="cls-4" d="M390,240.3v132.9h55.9l-.6,40.6s-.9,10.6-6.1,15.7c-5.3,5.2-47.5,13.8-47.5,13.8l-.2,49.3,91.2-26.1,12.1-139h-92.3l97.5-45.3,4.3-43.1"/>
      <polygon class="cls-6" points="362.4 366.1 361 373.3 390 373.3 390 366.1 362.4 366.1"/>
      <polygon class="cls-6" points="369.4 275.5 369.4 283.1 390 283.1 390 276.7 370.8 275.5 369.4 275.5"/>
      <polygon class="cls-6" points="375.5 241.5 374 244.4 390 244.4 390 240.3 375.5 241.5"/>
      <path class="cls-6" d="M423.7,211"/>
      <polyline class="cls-6" points="145.6 158.8 210.2 158.8 210.2 111.8 98.9 112.3"/>
      <polyline class="cls-6" points="387.7 444 391.8 443.4 391.6 492.7"/>
      <path class="cls-5" d="M391.1,236.7v3.6l-16.6,1.3s.8-23.5.8-23.6,4-38.2,4-38.2v-5c0,0,.1-9.6.1-9.6h191.1c0,0-2.5,16.8-2.5,16.8,0,0-85.6,6.5-85.2,6.3s-71.4-3.4-71.4-3.4l-22.2,5.2,2,3.3"/>
    </g>
  </g>
</svg>